
<svg version="1.1" xmlns="http://www.w3.org/2000/svg" width="420" height="490" viewBox="0 0 420 490">
  <defs>
    <style>
      .cover-color { fill: #08703B; }
      .hinge-color { fill: #4FAE72; }
      .white { fill: #FFFFFF; }
    </style>
  </defs>

  <!-- Layer 1: Back Cover (Full height, provides the bottom dark green rim) -->
  <rect x="30" y="10" width="377" height="467" rx="30" ry="30" class="cover-color" />

  <!-- Layer 2: White Pages -->
  <!-- This path creates the 'glimpse': 
       - Semicircle on the left.
       - Stretches up the right side (y=400) to be revealed by the cover's curve.
       - Bottom edge sits above the back cover to show the green rim. -->
  <path class="white" d="
    M 66,432 
    L 370,432 
    L 395,400 
    L 395,445 
    Q 395,463 365,463 
    L 66,463 
    A 15.5,15.5 0 0 1 66,432 
    Z" />

  <!-- Layer 3: Front Cover (Shorter height) -->
  <!-- Height reduced to 432. The bottom-right corner (rx=30) curves away, revealing the white pages behind it. -->
  <rect x="30" y="10" width="377" height="422" rx="30" ry="30" class="cover-color" />

  <!-- Paw Print -->
  <g class="white">
    <path d="M 143.5,275.0 Q 143,284 146.5,292.0 Q 150,300 157.5,305.5 Q 165,311 172.0,312.5 Q 179,314 195.5,309.5 Q 212,305 221.0,305.0 Q 230,305 244.5,309.5 Q 259,314 265.5,313.0 Q 272,312 281.0,305.5 Q 290,299 293.5,290.0 Q 297,281 296.5,274.5 Q 296,268 292.0,260.0 Q 288,252 274.0,240.5 Q 260,229 250.0,214.0 Q 240,199 233.0,196.0 Q 226,193 219.5,193.0 Q 213,193 207.0,195.5 Q 201,198 190.5,213.0 Q 180,228 166.0,239.5 Q 152,251 148.0,258.5 Q 144,266 143.5,275.0 Z" />
    <ellipse cx="134.5" cy="197.5" rx="23.5" ry="31.5" transform="rotate(-30, 134.5, 197.5)" />
    <ellipse cx="306" cy="197.5" rx="24" ry="31.5" transform="rotate(30, 306, 197.5)" />
    <ellipse cx="185" cy="148" rx="27" ry="36" transform="rotate(-10, 185, 148)" />
    <ellipse cx="256" cy="148" rx="27" ry="36" transform="rotate(10, 256, 148)" />
  </g>

  <!-- Hinges -->
  <rect x="16" y="77" width="47" height="22" rx="11" ry="11" class="hinge-color" />
  <rect x="16" y="154" width="47" height="22" rx="11" ry="11" class="hinge-color" />
  <rect x="16" y="288" width="47" height="22" rx="11" ry="11" class="hinge-color" />
  <rect x="16" y="363" width="47" height="22" rx="11" ry="11" class="hinge-color" />

</svg>
