<?xml version="1.0" encoding="UTF-8" standalone="no"?>
<svg
   version="1.1"
   id="svg2"
   width="262.10297"
   height="241.66426"
   viewBox="0 0 262.10297 241.66426"
   xmlns="http://www.w3.org/2000/svg">
  <g
     id="g8"
     transform="translate(-254.66246,-375.45534)">
    <path
       id="path1015"
       style="fill:#ffffff;stroke:none"
       d="m 343.06445,375.53516 c -18.84704,-0.75081 -31.19316,18.20499 -32.68061,35.20126 -2.4025,19.24896 3.22096,43.77475 22.8464,51.96159 15.80653,6.08383 35.11166,-3.94169 38.61265,-20.72539 5.60804,-22.2892 -0.12861,-50.17451 -20.19415,-63.54071 -2.61817,-1.54266 -5.54363,-2.62605 -8.58429,-2.89675 z m 89.40039,0.0234 c -19.57765,-0.85457 -31.53376,19.32312 -34.16387,36.44681 -3.83694,18.63987 0.7538,43.24554 20.56759,50.84992 17.18884,6.26783 35.50777,-7.23634 39.19292,-24.20525 6.42912,-21.60578 1.21577,-49.97127 -19.91458,-61.52232 -1.79975,-0.80559 -3.71927,-1.35651 -5.68206,-1.56916 z m 61.84571,67.69337 c -19.40418,-0.28411 -31.53875,19.28481 -33.61873,36.62922 -3.15855,13.95256 0.30712,32.7702 16.27208,36.75478 18.64395,4.09229 33.51302,-13.68515 37.88132,-30.00539 5.48648,-16.28048 -0.85889,-41.14076 -20.53467,-43.37861 z m -213.9375,0.043 c -14.59614,-0.8106 -25.88208,12.79688 -25.64352,26.74805 -0.69503,19.07276 9.26058,41.77846 29.17501,46.8095 11.54205,3.12376 22.97206,-5.17252 25.68515,-16.39 5.54982,-18.44531 -1.16654,-40.5777 -16.14625,-52.70007 -3.79141,-2.729 -8.37694,-4.41116 -13.07039,-4.46748 z m 107.47265,31.09398 c -16.69651,-0.83177 -31.37959,9.78893 -39.69,23.61384 -8.25111,13.11096 -17.8483,25.57304 -31.01672,34.09993 -20.22955,13.06797 -29.3999,42.09778 -16.41109,63.23797 9.7563,16.93345 31.3305,24.7724 49.86331,18.95995 16.95431,-4.74817 35.30129,-10.82109 52.59205,-3.94828 13.65328,4.93363 28.87175,10.00875 43.05025,3.84106 23.6886,-7.70344 38.29442,-37.01067 26.66609,-59.84186 -9.48184,-20.3515 -33.45578,-27.92249 -44.18421,-47.45939 -9.78065,-14.46219 -21.03883,-32.72363 -40.86968,-32.50322 z" />
  </g>
</svg>
